# File created by Blade
# Date/Time:  Tue Sep 30 19:10:51 2014
#---------------------------------------------------------
:version 1.10
:name HOM
:units
  mass 1.0
  length 1.000000
  angle deg
:documentation
     Acclaim Skeleton File
:root
   axis xyz
   order TX TY TZ RX RY RZ
   position 0.000000 0.000000 0.000000
   orientation 0 0 0
:bonedata
   begin
      id 1
      name Spine_dum
      direction 0.000000 1.000000 0.000000
      length 7.508948
      axis 0.0 0.0 0.0 xyz
   end
   begin
      id 2
      name LeftUpLeg_dum
      direction 1.000000 0.000000 0.000000
      length 3.000560
      axis 0.0 0.0 0.0 xyz
   end
   begin
      id 3
      name RightUpLeg_dum
      direction -1.000000 0.000000 0.000000
      length 3.000560
      axis 0.0 0.0 0.0 xyz
   end
   begin
      id 4
      name Spine
      direction 0.000000 1.000000 0.000000
      length 0.000000
      axis 0.0 0.0 0.0 xyz
      dof rx ry rz
   end
   begin
      id 5
      name Spine_dum1
      direction 0.000000 1.000000 0.000000
      length 13.861154
      axis 0.0 0.0 0.0 xyz
   end
   begin
      id 6
      name Spine_dum2
      direction 0.000000 1.000000 0.000000
      length 8.204781
      axis 0.0 0.0 0.0 xyz
   end
   begin
      id 7
      name Spine_dum3
      direction 0.000000 1.000000 0.000000
      length 8.204781
      axis 0.0 0.0 0.0 xyz
   end
   begin
      id 8
      name Head
      direction 0.000000 1.000000 0.000000
      length 4.527550
      axis 0.0 0.0 0.0 xyz
      dof rx ry rz
   end
   begin
      id 9
      name LeftShoulder
      direction 1.000000 0.000000 0.000000
      length 6.635956
      axis 0.0 0.0 -90.0 xyz
      dof rx ry rz
   end
   begin
      id 10
      name LeftArm
      direction 1.000000 0.000000 0.000000
      length 10.274218
      axis 0.0 0.0 -90.0 xyz
      dof rx ry rz
   end
   begin
      id 11
      name LeftForeArm
      direction 1.000000 0.000000 0.000000
      length 8.522147
      axis 0.0 0.0 -90.0 xyz
      dof ry rz rx
   end
   begin
      id 12
      name LeftHand
      direction 0.000000 0.000000 0.000000
      length 0.000000
      axis 0.0 0.0 -90.0 xyz
      dof rx ry rz
   end
   begin
      id 13
      name LeftHand_dum1
      direction 0.000000 0.000000 0.000000
      length 0.000000
      axis 0.0 0.0 -90.0 xyz
   end
   begin
      id 14
      name LeftHand_dum2
      direction 1.000000 0.000000 0.000000
      length 3.937000
      axis 0.0 0.0 -90.0 xyz
   end
   begin
      id 15
      name LeftHandThumb1
      direction 0.000000 0.000000 1.000000
      length 3.937000
      axis 0.0 0.0 -90.0 xyz
      dof rx rz ry
   end
   begin
      id 16
      name RightShoulder
      direction -1.000000 0.000000 0.000000
      length 6.635956
      axis 0.0 0.0 90.0 xyz
      dof rx ry rz
   end
   begin
      id 17
      name RightArm
      direction -1.000000 0.000000 0.000000
      length 10.274218
      axis 0.0 0.0 90.0 xyz
      dof rx ry rz
   end
   begin
      id 18
      name RightForeArm
      direction -1.000000 0.000000 0.000000
      length 8.522147
      axis 0.0 0.0 90.0 xyz
      dof ry rz rx
   end
   begin
      id 19
      name RightHand
      direction 0.000000 0.000000 0.000000
      length 0.000000
      axis 0.0 0.0 90.0 xyz
      dof rx ry rz
   end
   begin
      id 20
      name RightHand_dum1
      direction 0.000000 0.000000 0.000000
      length 0.000000
      axis 0.0 0.0 90.0 xyz
   end
   begin
      id 21
      name RightHand_dum2
      direction -1.000000 0.000000 0.000000
      length 3.937000
      axis 0.0 0.0 90.0 xyz
   end
   begin
      id 22
      name RightHandThumb1
      direction 0.000000 0.000000 1.000000
      length 3.937000
      axis 0.0 0.0 90.0 xyz
      dof rx rz ry
   end
   begin
      id 23
      name LeftUpLeg
      direction 0.000000 -1.000000 0.000000
      length 16.490845
      axis 0.0 0.0 0.0 xyz
      dof rx ry rz
   end
   begin
      id 24
      name LeftLeg
      direction 0.000000 -1.000000 0.000000
      length 14.556576
      axis 0.0 0.0 0.0 xyz
      dof rx ry rz
   end
   begin
      id 25
      name LeftFoot
      direction 0.000000 -0.258819 0.965926
      length 4.831116
      axis 15.0 0.0 0.0 xyz
      dof rx ry rz
   end
   begin
      id 26
      name LeftToeBase
      direction 0.000000 0.000000 1.000000
      length 2.952750
      axis 0.0 0.0 0.0 xyz
      dof rx ry rz
   end
   begin
      id 27
      name RightUpLeg
      direction 0.000000 -1.000000 0.000000
      length 16.490845
      axis 0.0 0.0 0.0 xyz
      dof rx ry rz
   end
   begin
      id 28
      name RightLeg
      direction 0.000000 -1.000000 0.000000
      length 14.556576
      axis 0.0 0.0 0.0 xyz
      dof rx ry rz
   end
   begin
      id 29
      name RightFoot
      direction 0.000000 -0.258819 0.965926
      length 4.831116
      axis 15.0 0.0 0.0 xyz
      dof rx ry rz
   end
   begin
      id 30
      name RightToeBase
      direction 0.000000 0.000000 1.000000
      length 2.952750
      axis 0.0 0.0 0.0 xyz
      dof rx ry rz
   end
:hierarchy
   begin
      root Spine_dum LeftUpLeg_dum RightUpLeg_dum
      Spine_dum Spine
      LeftUpLeg_dum LeftUpLeg
      RightUpLeg_dum RightUpLeg
      Spine Spine_dum1 Spine_dum2 Spine_dum3
      Spine_dum1 Head
      Spine_dum2 LeftShoulder
      Spine_dum3 RightShoulder
      LeftShoulder LeftArm
      LeftArm LeftForeArm
      LeftForeArm LeftHand
      LeftHand LeftHand_dum1 LeftHand_dum2
      LeftHand_dum1 LeftHandThumb1
      RightShoulder RightArm
      RightArm RightForeArm
      RightForeArm RightHand
      RightHand RightHand_dum1 RightHand_dum2
      RightHand_dum1 RightHandThumb1
      LeftUpLeg LeftLeg
      LeftLeg LeftFoot
      LeftFoot LeftToeBase
      RightUpLeg RightLeg
      RightLeg RightFoot
      RightFoot RightToeBase
   end

# File created by Blade
# Date/Time:  Wed Sep 24 19:25:39 2014
# Frame Rate: 120.000 fps
#------------------------------------------------------
:FULLY-SPECIFIED
:DEGREES
531
root -16.331269 32.685056 -2.703646 18.778529 -29.020418 1.591263
Spine -24.133924 19.475298 -10.849987
Head 10.877130 0.384085 8.926911
LeftShoulder -16.761195 30.932280 10.275105
LeftArm 11.309992 21.735799 -73.377120
LeftForeArm 7.334867 -0.000000 37.681232
LeftHand -26.677482 -0.000000 -1.062971
LeftHandThumb1 -26.253704 0.000000 33.147579
RightShoulder -19.235011 7.228367 -16.843998
RightArm -12.674394 -35.047920 90.056469
RightForeArm -11.610745 -0.000000 58.401222
RightHand 2.305209 -0.000000 -28.289958
RightHandThumb1 -24.326973 -0.000000 -32.862282
LeftUpLeg -13.220973 -15.791735 13.312378
LeftLeg 127.847683 -0.000000 -0.000000
LeftFoot 40.593018 4.481054 -10.684656
LeftToeBase 16.635052 -0.000000 -0.000000
RightUpLeg -18.036709 12.099281 0.908245
RightLeg 10.583284 -0.000000 -0.000000
RightFoot -13.351538 3.253327 -15.942241
RightToeBase -6.709968 -0.000000 0.000000
532
root -16.344827 32.697138 -2.671099 18.654348 -29.015719 1.787386
Spine -24.399202 19.452621 -11.169377
Head 11.238230 0.251235 9.098633
LeftShoulder -16.813089 31.028596 10.306988
LeftArm 11.143864 21.310166 -73.286686
LeftForeArm 7.366697 -0.000000 37.878504
LeftHand -26.738965 -0.000000 -1.301477
LeftHandThumb1 -26.253704 0.000000 33.147579
RightShoulder -19.325567 7.126711 -16.734145
RightArm -12.749219 -35.141449 90.166793
RightForeArm -11.648207 -0.000000 58.253396
RightHand 2.341116 -0.000000 -28.264071
RightHandThumb1 -24.326973 -0.000000 -32.862282
LeftUpLeg -12.638952 -15.941398 13.186058
LeftLeg 128.546365 -0.000000 -0.000000
LeftFoot 40.823699 4.396520 -10.897572
LeftToeBase 16.591109 -0.000000 -0.000000
RightUpLeg -17.868022 11.984556 0.767410
RightLeg 10.420340 -0.000000 -0.000000
RightFoot -13.312577 3.336508 -15.959528
RightToeBase -6.749382 -0.000000 0.000000
533
root -16.361766 32.707225 -2.641167 18.557216 -28.981634 1.933027
Spine -24.656950 19.409820 -11.420329
Head 11.577592 0.153048 9.277091
LeftShoulder -16.887088 31.090008 10.377243
LeftArm 10.948889 20.885624 -73.267265
LeftForeArm 7.299773 -0.000000 38.063244
LeftHand -26.686700 -0.000000 -1.246223
LeftHandThumb1 -26.253704 0.000000 33.147579
RightShoulder -19.389756 7.030146 -16.628740
RightArm -12.836676 -35.220110 90.261832
RightForeArm -11.671026 -0.000000 58.129642
RightHand 2.363474 -0.000000 -28.252843
RightHandThumb1 -24.326973 -0.000000 -32.862282
LeftUpLeg -12.071493 -16.077879 13.147724
LeftLeg 129.191995 -0.000000 -0.000000
LeftFoot 40.948785 3.980287 -10.478325
LeftToeBase 17.112388 -0.000000 -0.000000
RightUpLeg -17.664799 11.955661 0.660325
RightLeg 10.172478 -0.000000 -0.000000
RightFoot -13.220663 3.362144 -15.895841
RightToeBase -6.743969 -0.000000 0.000000
534
root -16.379787 32.716611 -2.610725 18.452167 -28.952335 2.048166
Spine -24.891675 19.384046 -11.622229
Head 11.929939 0.074128 9.452441
LeftShoulder -16.948273 31.273287 10.419666
LeftArm 10.854291 20.391433 -73.262335
LeftForeArm 7.376225 -0.000000 38.270697
LeftHand -26.769631 -0.000000 -1.201406
LeftHandThumb1 -26.253704 0.000000 33.147579
RightShoulder -19.434512 6.908990 -16.500800
RightArm -12.887139 -35.286361 90.304375
RightForeArm -11.694700 -0.000000 58.030291
RightHand 2.344179 -0.000000 -28.227610
RightHandThumb1 -24.326973 -0.000000 -32.862282
LeftUpLeg -11.464989 -16.242838 13.110360
LeftLeg 129.767273 -0.000000 -0.000000
LeftFoot 41.175607 3.877355 -10.363779
LeftToeBase 17.142171 -0.000000 -0.000000
RightUpLeg -17.436492 11.947551 0.580738
RightLeg 9.923013 -0.000000 -0.000000
RightFoot -13.111830 3.382332 -15.845436
RightToeBase -6.780840 -0.000000 0.000000
